<?xml version="1.0" encoding="utf-8"?>
<!-- Generator: Adobe Illustrator 26.0.3, SVG Export Plug-In . SVG Version: 6.00 Build 0)  -->
<svg version="1.1" id="Layer_1" xmlns="http://www.w3.org/2000/svg" xmlns:xlink="http://www.w3.org/1999/xlink" x="0px" y="0px"
	 viewBox="0 0 1920 1080" style="enable-background:new 0 0 1920 1080;" xml:space="preserve">
<style type="text/css">
	.st0{fill:none;stroke:#000000;stroke-width:74;stroke-linecap:round;stroke-miterlimit:10;}
	.st1{fill:none;stroke:#000000;stroke-miterlimit:10;}
	.st2{stroke:#000000;stroke-width:7;stroke-miterlimit:10;}
	.st3{fill:none;stroke:#000000;stroke-width:98;stroke-miterlimit:10;}
	.st4{fill:#00FFFF;stroke:#000000;stroke-width:26;stroke-miterlimit:10;}
	.st5{fill:none;stroke:#000000;stroke-width:7;stroke-miterlimit:10;}
	.st6{font-family:'OldEnglishTextMT';}
	.st7{font-size:123px;}
	.st8{fill:none;stroke:#000000;stroke-width:3;stroke-miterlimit:10;}
	.st9{font-family:'BrushScriptMT';}
	.st10{font-size:82px;}
	.st11{fill:#6DF2CC;stroke:#000000;stroke-width:0.5;stroke-miterlimit:10;}
	.st12{fill:none;}
	.st13{fill:#00FFED;}
</style>
<g>
	<line class="st0" x1="461.5" y1="443.5" x2="914.5" y2="251.5"/>
</g>
<g>
	<line class="st0" x1="1428.5" y1="442.5" x2="915.8" y2="263.5"/>
</g>
<rect x="603.5" y="272.5" class="st2" width="61" height="94"/>
<g>
	<line class="st3" x1="551.5" y1="694" x2="551.5" y2="400.5"/>
</g>
<ellipse transform="matrix(0.7071 -0.7071 0.7071 0.7071 2.464042e-02 748.0595)" class="st4" cx="903" cy="374" rx="54.5" ry="54.5"/>
<line class="st5" x1="849" y1="374.5" x2="958" y2="374.5"/>
<line class="st5" x1="906.5" y1="321.5" x2="906.5" y2="430.5"/>
<g>
	<g>
		<path d="M937,326c1.9,0,1.9-3,0-3S935.1,326,937,326L937,326z"/>
	</g>
</g>
<g>
	<g>
		<path d="M937,326c1.9,0,1.9-3,0-3S935.1,326,937,326L937,326z"/>
	</g>
</g>
<text transform="matrix(1 0 0 1 603.6665 578.5)" class="st6 st7">ImmoSimo.com</text>
<text transform="matrix(1 0 0 1 603.6665 578.5)" class="st8 st6 st7">ImmoSimo.com</text>
<text transform="matrix(1 0 0 1 674.4209 657.5732)" class="st9 st10">Immobilier</text>
<text transform="matrix(1 0 0 1 668.5488 657.5737)" class="st11 st9 st10">Immobilier</text>
<g>
	<rect x="951.4" y="707.8" class="st12" width="162.5" height="58.3"/>
	<g>
		<path class="st13" d="M607.4,668.3c168.7,64.2,283.3,19.8,446.7-23.3c14-3.5,28.9-7,43-10c24.1-5.2,48.9-9.4,73.5-12
			c108.9-11,219.4,18.5,313.9,72c8.4,5,16.8,10.1,25,15.4c0,0-1.8,4.1-1.8,4.1c-20.9-5-42.2-11-63.1-15.9
			c-93.3-23.1-189-34.9-284.9-30.6c-25.7,1.3-51.4,4.1-76.8,8.4c-44.8,7.7-88.5,18.6-133.8,27.8c-119,25.7-232.6,23.7-343.5-31.7
			C605.6,672.4,607.4,668.3,607.4,668.3L607.4,668.3z"/>
	</g>
	<g>
		<path d="M607.4,674c168.7,64.2,283.3,19.8,446.7-23.3c14-3.5,28.9-7,43-10c24.1-5.2,48.9-9.4,73.5-12
			c108.9-11,219.4,18.5,313.9,72c8.4,5,16.8,10.1,25,15.4c0,0-1.8,4.1-1.8,4.1c-20.9-5-42.2-11-63.1-15.9
			c-93.3-23.1-189-34.9-284.9-30.6c-25.7,1.3-51.4,4.1-76.8,8.4c-44.8,7.7-88.5,18.6-133.8,27.8c-119,25.7-232.6,23.7-343.5-31.7
			C605.6,678.1,607.4,674,607.4,674L607.4,674z"/>
	</g>
</g>
</svg>
